<svg width="18" height="20" viewBox="0 0 18 20" fill="none" xmlns="http://www.w3.org/2000/svg">
<path d="M-2.13312 0.714233H1.3557L2.59856 13.0714C2.65021 13.412 2.82324 13.7225 3.08577 13.9457C3.34828 14.1688 3.68261 14.2895 4.02713 14.2857H13.0271C13.3387 14.3019 13.647 14.2158 13.9048 14.0404C14.1628 13.8649 14.3563 13.6099 14.4557 13.3142L16.3557 7.59995C16.4266 7.38512 16.4454 7.15652 16.4106 6.933C16.3758 6.70948 16.2884 6.49741 16.1557 6.31423C16.0174 6.11949 15.8324 5.96253 15.6178 5.8577C15.4033 5.75289 15.1657 5.70356 14.9271 5.71423H1.8557" stroke="#0054AE" stroke-width="1.5" stroke-linecap="round" stroke-linejoin="round"/>
<path d="M12.7847 19.2856C12.3903 19.2856 12.0704 18.9658 12.0704 18.5713C12.0704 18.1769 12.3903 17.8571 12.7847 17.8571C13.1791 17.8571 13.499 18.1769 13.499 18.5713C13.499 18.9658 13.1791 19.2856 12.7847 19.2856Z" stroke="#0054AE" stroke-width="1.5" stroke-linecap="round" stroke-linejoin="round"/>
<path d="M3.49981 19.2856C3.10531 19.2856 2.78552 18.9658 2.78552 18.5713C2.78552 18.1769 3.10531 17.8571 3.49981 17.8571C3.89429 17.8571 4.21409 18.1769 4.21409 18.5713C4.21409 18.9658 3.89429 19.2856 3.49981 19.2856Z" stroke="#0054AE" stroke-width="1.5" stroke-linecap="round" stroke-linejoin="round"/>
</svg>
