<svg width="26" height="26" viewBox="0 0 26 26" fill="none" xmlns="http://www.w3.org/2000/svg">
<g clip-path="url(#clip0_1_754)">
<g clip-path="url(#clip1_1_754)">
<path d="M17.336 4.66675H9.01591C6.72755 4.66675 4.84924 6.54505 4.84924 8.84664V17.1667C4.84924 19.4551 6.72755 21.3334 9.01591 21.3334H17.336C19.6376 21.3334 21.5159 19.4551 21.5159 17.1535V8.84664C21.5159 6.54505 19.6376 4.66675 17.336 4.66675ZM15.418 13.0001H13.8439V18.1588H11.8599V13.0001H10.8016V10.8837H11.7276V9.98421C11.7276 9.13764 12.1508 7.80166 13.9365 7.80166H15.5635V9.56093H14.4128C14.2276 9.56093 13.9762 9.67998 13.9762 10.09V10.8837H15.6032L15.418 13.0001Z" fill="#CCCCCC"/>
</g>
</g>
<defs>
<clipPath id="clip0_1_754">
<rect width="25" height="25" fill="white" transform="translate(0.682617 0.5)"/>
</clipPath>
<clipPath id="clip1_1_754">
<rect width="25" height="25" fill="white" transform="translate(0.682617 0.5)"/>
</clipPath>
</defs>
</svg>
