<svg width="26" height="26" viewBox="0 0 26 26" fill="none" xmlns="http://www.w3.org/2000/svg">
<g clip-path="url(#clip0_1_739)">
<path d="M14.6573 11.9605C14.3269 11.4976 13.785 11.1934 13.177 11.1934C12.5691 11.1934 12.0272 11.4976 11.6967 11.9605C11.4852 12.2648 11.3531 12.6352 11.3531 13.032C11.3531 14.0373 12.1725 14.8574 13.177 14.8574C14.1816 14.8574 15.001 14.0373 15.001 13.032C15.001 12.6352 14.8689 12.2648 14.6573 11.9605Z" fill="#CCCCCC"/>
<path d="M15.8074 11.9736C15.9396 12.2382 16.0189 12.6616 16.0189 13.0319C16.0189 14.5927 14.7501 15.8758 13.1772 15.8758C11.6044 15.8758 10.3356 14.6059 10.3356 13.0319C10.3356 12.6483 10.4149 12.2382 10.5471 11.9736H8.94781V16.2197C8.94781 16.7753 9.43685 17.2647 9.99196 17.2647H16.3625C16.9176 17.2647 17.4067 16.7753 17.4067 16.2197V11.9736H15.8074Z" fill="#CCCCCC"/>
<path d="M16.9293 9.03838H15.3962V10.7976H17.1409V9.26324V9.02515L16.9293 9.03838Z" fill="#CCCCCC"/>
<path d="M17.3262 4.69873H9.02589C6.72612 4.69873 4.8493 6.57704 4.8493 8.87863V17.1988C4.8493 19.4871 6.72612 21.3654 9.02589 21.3654H17.3394C19.6392 21.3654 21.516 19.4871 21.516 17.1855V8.87863C21.5027 6.57704 19.626 4.69873 17.3262 4.69873ZM18.3307 11.9606V16.2199C18.3307 17.331 17.4716 18.1908 16.3613 18.1908H9.99073C8.88049 18.1908 8.02139 17.331 8.02139 16.2199V11.9606V9.84423C8.02139 8.73313 8.88049 7.87333 9.99073 7.87333H16.3613C17.4716 7.87333 18.3307 8.73313 18.3307 9.84423V11.9606Z" fill="#CCCCCC"/>
</g>
<defs>
<clipPath id="clip0_1_739">
<rect width="25" height="25" fill="white" transform="translate(0.682617 0.5)"/>
</clipPath>
</defs>
</svg>
