<svg width="18" height="16" viewBox="0 0 18 16" fill="none" xmlns="http://www.w3.org/2000/svg">
<path fill-rule="evenodd" clip-rule="evenodd" d="M15.3325 3.56819V13.274C16.4371 13.274 17.3325 12.4839 17.3325 11.5093V2.68584C17.3325 1.71123 16.4371 0.921143 15.3325 0.921143H5.33251C4.22794 0.921143 3.33251 1.71123 3.33251 2.68584H14.3325C14.8848 2.68584 15.3325 3.08088 15.3325 3.56819ZM2.33252 3.56822H12.3325C13.4371 3.56822 14.3325 4.35831 14.3325 5.33293V14.1564C14.3325 15.131 13.4371 15.9211 12.3325 15.9211H2.33252C1.22795 15.9211 0.33252 15.131 0.33252 14.1564V5.33293C0.33252 4.35831 1.22795 3.56822 2.33252 3.56822ZM2.33264 5.33287V14.1563H12.3326V5.33287H2.33264Z" fill="#C4C4C4"/>
</svg>
