<svg width="20" height="20" viewBox="0 0 20 20" fill="none" xmlns="http://www.w3.org/2000/svg">
<path d="M13.4999 10.0503L8.5502 15L7.13599 13.5858L10.6715 10.0503L7.13599 6.51468L8.5502 5.10046L13.4999 10.0503Z" fill="#555555"/>
<path fill-rule="evenodd" clip-rule="evenodd" d="M0 10C4.82823e-07 4.47715 4.47715 -4.82823e-07 10 0C15.5228 4.82823e-07 20 4.47715 20 10C20 15.5228 15.5228 20 10 20C4.47715 20 -4.82823e-07 15.5228 0 10ZM2 10C2 5.58172 5.58172 2 10 2C14.4183 2 18 5.58172 18 10C18 14.4183 14.4183 18 10 18C5.58172 18 2 14.4183 2 10Z" fill="#555555"/>
</svg>
