<svg width="20" height="20" viewBox="0 0 20 20" fill="none" xmlns="http://www.w3.org/2000/svg">
<path d="M2.1875 10C2.1875 6.31715 2.1875 4.47573 3.33162 3.33162C4.47573 2.1875 6.31715 2.1875 10 2.1875C13.6828 2.1875 15.5243 2.1875 16.6684 3.33162C17.8125 4.47573 17.8125 6.31715 17.8125 10C17.8125 13.6828 17.8125 15.5243 16.6684 16.6684C15.5243 17.8125 13.6828 17.8125 10 17.8125C6.31715 17.8125 4.47573 17.8125 3.33162 16.6684C2.1875 15.5243 2.1875 13.6828 2.1875 10Z" stroke="#333333" stroke-width="1.125"/>
<path d="M7.65625 12.3438L12.3438 7.65625" stroke="#333333" stroke-width="1.125" stroke-linecap="round"/>
<path d="M12.7344 11.9531C12.7344 12.3846 12.3846 12.7344 11.9531 12.7344C11.5216 12.7344 11.1719 12.3846 11.1719 11.9531C11.1719 11.5216 11.5216 11.1719 11.9531 11.1719C12.3846 11.1719 12.7344 11.5216 12.7344 11.9531Z" fill="#333333"/>
<path d="M8.82812 8.04688C8.82812 8.47836 8.47836 8.82812 8.04688 8.82812C7.61541 8.82812 7.26562 8.47836 7.26562 8.04688C7.26562 7.61541 7.61541 7.26562 8.04688 7.26562C8.47836 7.26562 8.82812 7.61541 8.82812 8.04688Z" fill="#333333"/>
</svg>
