<svg width="22" height="22" viewBox="0 0 22 22" fill="none" xmlns="http://www.w3.org/2000/svg">
<path d="M8.42188 11C8.42188 12.1865 7.45999 13.1484 6.27344 13.1484C5.08689 13.1484 4.125 12.1865 4.125 11C4.125 9.81346 5.08689 8.85156 6.27344 8.85156C7.45999 8.85156 8.42188 9.81346 8.42188 11Z" stroke="#333333" stroke-width="1.375"/>
<path d="M12.7188 6.27344L8.42188 9.28125" stroke="#333333" stroke-width="1.375" stroke-linecap="round"/>
<path d="M12.7188 15.7266L8.42188 12.7188" stroke="#333333" stroke-width="1.375" stroke-linecap="round"/>
<path d="M17.0156 16.5859C17.0156 17.7725 16.0537 18.7344 14.8672 18.7344C13.6806 18.7344 12.7188 17.7725 12.7188 16.5859C12.7188 15.3994 13.6806 14.4375 14.8672 14.4375C16.0537 14.4375 17.0156 15.3994 17.0156 16.5859Z" stroke="#333333" stroke-width="1.375"/>
<path d="M17.0156 5.41406C17.0156 6.60061 16.0537 7.5625 14.8672 7.5625C13.6806 7.5625 12.7188 6.60061 12.7188 5.41406C12.7188 4.22751 13.6806 3.26562 14.8672 3.26562C16.0537 3.26562 17.0156 4.22751 17.0156 5.41406Z" stroke="#333333" stroke-width="1.375"/>
</svg>
