<svg width="21" height="21" viewBox="0 0 21 21" fill="none" xmlns="http://www.w3.org/2000/svg">
<g clip-path="url(#clip0_1_829)">
<path d="M0.760254 0.750031H4.42351L5.72851 13.725C5.78275 14.0827 5.96443 14.4087 6.24009 14.643C6.51573 14.8773 6.86677 15.0041 7.22851 15H16.6785C17.0057 15.0171 17.3294 14.9266 17.6001 14.7425C17.871 14.5583 18.0741 14.2905 18.1785 13.98L20.1735 7.98003C20.2479 7.75446 20.2677 7.51443 20.2311 7.27974C20.1947 7.04504 20.1029 6.82236 19.9635 6.63003C19.8183 6.42555 19.6241 6.26075 19.3988 6.15068C19.1735 6.04062 18.924 5.98883 18.6735 6.00003H4.94851" stroke="#333333" stroke-width="1.5" stroke-linecap="round" stroke-linejoin="round"/>
<path d="M16.424 20.25C16.0098 20.25 15.674 19.9141 15.674 19.5C15.674 19.0858 16.0098 18.75 16.424 18.75C16.8381 18.75 17.174 19.0858 17.174 19.5C17.174 19.9141 16.8381 20.25 16.424 20.25Z" stroke="#333333" stroke-width="1.5" stroke-linecap="round" stroke-linejoin="round"/>
<path d="M6.6748 20.25C6.26058 20.25 5.9248 19.9141 5.9248 19.5C5.9248 19.0858 6.26058 18.75 6.6748 18.75C7.08901 18.75 7.4248 19.0858 7.4248 19.5C7.4248 19.9141 7.08901 20.25 6.6748 20.25Z" stroke="#333333" stroke-width="1.5" stroke-linecap="round" stroke-linejoin="round"/>
</g>
<defs>
<clipPath id="clip0_1_829">
<rect width="21" height="21" fill="white"/>
</clipPath>
</defs>
</svg>
