<svg width="23" height="23" viewBox="0 0 23 23" fill="none" xmlns="http://www.w3.org/2000/svg">
<path d="M7.90625 6.10938C7.90625 7.0625 8.28488 7.97658 8.95884 8.65054C9.63279 9.3245 10.5469 9.70312 11.5 9.70312C12.4531 9.70312 13.3672 9.3245 14.0412 8.65054C14.7151 7.97658 15.0938 7.0625 15.0938 6.10938C15.0938 5.15625 14.7151 4.24217 14.0412 3.56821C13.3672 2.89425 12.4531 2.51563 11.5 2.51562C10.5469 2.51563 9.63279 2.89425 8.95884 3.56821C8.28488 4.24217 7.90625 5.15625 7.90625 6.10938Z" stroke="#333333" stroke-width="1.4375"/>
<path d="M18.6875 16.4414C18.6875 18.6743 18.6875 20.4844 11.5 20.4844C4.3125 20.4844 4.3125 18.6743 4.3125 16.4414C4.3125 14.2085 7.53045 12.3984 11.5 12.3984C15.4696 12.3984 18.6875 14.2085 18.6875 16.4414Z" stroke="#333333" stroke-width="1.4375"/>
</svg>
